      <svg class="logo head" viewBox="-5 -5 110 110" xmlns="http://www.w3.org/2000/svg">
        <path
          d="M50 100C77.6143 100 100 77.6142 100 50C100 35.2568 93.619 22.0039 83.468 12.8525V53.44C86.7107 54.6347 89.6121 56.2986 92.172 58.432V67.008C90.9773 65.984 89.6547 65.0027 88.204 64.064C86.7533 63.2106 85.1747 62.4 83.468 61.632C83.3827 65.3013 82.6573 68.7147 81.292 71.872C80.012 75.0293 77.964 77.5467 75.1479 79.424C72.332 81.3867 68.62 82.368 64.012 82.368C59.3187 82.368 55.3933 80.832 52.236 77.76C49.0786 74.7733 47.5 70.8053 47.5 65.856C47.5 61.5893 49.0786 57.9626 52.236 54.976C55.308 51.9893 59.8307 50.496 65.804 50.496C67.6813 50.5813 69.26 50.6667 70.54 50.752C71.9053 50.8373 73.0146 50.9653 73.868 51.136V9.60001H50V0C22.3857 0 0 22.3858 0 50C0 77.6142 22.3857 100 50 100Z" fill="white"/>
        <path
          d="M59.02 70.848C57.74 69.3973 57.1 67.7333 57.1 65.856C57.1 63.6373 57.868 61.8026 59.4041 60.352C61.0254 58.9013 63.1587 58.176 65.804 58.176C68.876 58.176 71.564 58.432 73.868 58.944V60.352C73.868 62.144 73.6547 64.0213 73.228 65.984C72.8014 67.9467 71.9053 69.6107 70.54 70.976C69.1747 72.3413 67.084 73.024 64.2679 73.024C62.1346 73.024 60.3854 72.2986 59.02 70.848Z" fill="white"/>
      </svg>